<svg xmlns="http://www.w3.org/2000/svg" viewBox="0 0 437.96 301.5"><g id="Camada_2" data-name="Camada 2"><g id="Camada_1-2" data-name="Camada 1"><circle cx="379.59" cy="79.74" r="39.2" fill="#ff9b3c"/><circle cx="69.67" cy="79.74" r="39.2" fill="#ff9b3c"/><path d="M359.9,301.5H76.79a15.4,15.4,0,0,1,0-30.79H359.9a15.4,15.4,0,1,1,0,30.79ZM76.79,274.1a12,12,0,0,0,0,24H359.9a12,12,0,0,0,0-24Z"/><path d="M102.79,126.16H23.4A7.23,7.23,0,0,1,16.19,119v-8.33a3.08,3.08,0,0,1,3.08-3.08h87.65a3.08,3.08,0,0,1,3.08,3.08V119A7.22,7.22,0,0,1,102.79,126.16Zm-83.2-15.22v8a3.82,3.82,0,0,0,3.81,3.81h79.39A3.82,3.82,0,0,0,106.6,119v-8Z"/><path d="M413.29,126.16H333.9a7.23,7.23,0,0,1-7.21-7.21v-8.33a3.09,3.09,0,0,1,3.08-3.08h87.65a3.08,3.08,0,0,1,3.08,3.08V119A7.22,7.22,0,0,1,413.29,126.16Zm-83.2-15.22v8a3.82,3.82,0,0,0,3.81,3.81h79.39A3.82,3.82,0,0,0,417.1,119v-8Z"/><path d="M399.47,110.94H347.72a1.71,1.71,0,0,1-1.12-.42,41,41,0,1,1,54,0A1.71,1.71,0,0,1,399.47,110.94Zm-51.1-3.4h50.45a37.57,37.57,0,1,0-50.45,0Z"/><path d="M53.76,88.33l3-1.3a6.44,6.44,0,0,0,6.63,4.72,5.76,5.76,0,0,0,4-1.34,4.66,4.66,0,0,0,1.52-3.68,4.8,4.8,0,0,0-1.06-3.1,7.63,7.63,0,0,0-2.62-2.08c-1-.5-2.19-1.08-3.43-1.71S59.39,78.58,58.35,78a7.91,7.91,0,0,1-2.62-2.65,7.41,7.41,0,0,1-1.06-4,7.26,7.26,0,0,1,2-5.15A8.11,8.11,0,0,1,62,63.68V61.25h2.64v2.38a8.35,8.35,0,0,1,4.79,2.11,9.49,9.49,0,0,1,2.49,3.61L69,70.57a5.87,5.87,0,0,0-5.68-3.81,5.23,5.23,0,0,0-3.77,1.29,4.5,4.5,0,0,0,.13,6.53,13.28,13.28,0,0,0,3.55,2.31c1.39.64,2.78,1.32,4.19,2a10.59,10.59,0,0,1,3.57,3,7.29,7.29,0,0,1,1.47,4.59,8.2,8.2,0,0,1-2.1,5.68,8.59,8.59,0,0,1-5.7,2.73v3.25H62V94.92a8.79,8.79,0,0,1-5.44-2.21A10.2,10.2,0,0,1,53.76,88.33Z"/><path d="M364.26,88.33l3-1.3a6.45,6.45,0,0,0,6.63,4.72,5.76,5.76,0,0,0,4-1.34,4.63,4.63,0,0,0,1.52-3.68,4.8,4.8,0,0,0-1.06-3.1,7.63,7.63,0,0,0-2.62-2.08c-1-.5-2.18-1.08-3.43-1.71s-2.38-1.26-3.42-1.88a7.91,7.91,0,0,1-2.62-2.65,7.41,7.41,0,0,1-1.06-4,7.3,7.3,0,0,1,2-5.15,8.11,8.11,0,0,1,5.35-2.47V61.25h2.64v2.38a8.35,8.35,0,0,1,4.79,2.11,9.49,9.49,0,0,1,2.49,3.61l-2.94,1.22a5.87,5.87,0,0,0-5.68-3.81A5.23,5.23,0,0,0,370,68.05a4.36,4.36,0,0,0-1.34,3.25,4.31,4.31,0,0,0,1.47,3.28,13.28,13.28,0,0,0,3.55,2.31c1.39.64,2.78,1.32,4.19,2a10.59,10.59,0,0,1,3.57,3,7.29,7.29,0,0,1,1.47,4.59,8.2,8.2,0,0,1-2.1,5.68,8.59,8.59,0,0,1-5.7,2.73v3.25h-2.64V94.92a8.79,8.79,0,0,1-5.44-2.21A10.2,10.2,0,0,1,364.26,88.33Z"/><path d="M218.35,150.2A17.22,17.22,0,1,1,235.57,133,17.24,17.24,0,0,1,218.35,150.2Zm0-31A13.83,13.83,0,1,0,232.17,133,13.84,13.84,0,0,0,218.35,119.16Z"/><path d="M202.94,132.86H66.45a5.05,5.05,0,1,1,0-10.1H205.38a1.7,1.7,0,0,1,1.5.89,1.72,1.72,0,0,1-.08,1.74,13.6,13.6,0,0,0-2.17,6A1.71,1.71,0,0,1,202.94,132.86Zm-136.49-6.7a1.65,1.65,0,1,0,0,3.3H201.5a17.33,17.33,0,0,1,1-3.3Z"/><path d="M370.25,132.86H233.75a1.71,1.71,0,0,1-1.69-1.5,13.64,13.64,0,0,0-2.17-6,1.7,1.7,0,0,1,1.42-2.63H370.25a5.05,5.05,0,1,1,0,10.1Zm-135-3.4H370.25a1.65,1.65,0,0,0,0-3.3H234.15A17.36,17.36,0,0,1,235.2,129.46Z"/><path d="M298.84,274.1h-161a1.68,1.68,0,0,1-1.47-.85,1.72,1.72,0,0,1,0-1.7l72.74-126a1.68,1.68,0,0,1,2.32-.62,14,14,0,0,0,13.81,0,1.68,1.68,0,0,1,2.32.62l72.74,126a1.7,1.7,0,0,1-1.47,2.55Zm-158-3.39H295.9l-70.46-122a17.37,17.37,0,0,1-14.19,0Z"/><path d="M89,110.94H37.22a1.71,1.71,0,0,1-1.12-.42,41,41,0,1,1,54,0A1.71,1.71,0,0,1,89,110.94Zm-51.1-3.4H88.32a37.57,37.57,0,1,0-50.45,0Z"/><line x1="376.56" y1="1.5" x2="376.56" y2="24.07" fill="none" stroke="#000" stroke-linecap="round" stroke-linejoin="round" stroke-width="3"/><line x1="316.67" y1="20.77" x2="332.63" y2="36.73" fill="none" stroke="#000" stroke-linecap="round" stroke-linejoin="round" stroke-width="3"/><line x1="436.46" y1="20.77" x2="420.5" y2="36.73" fill="none" stroke="#000" stroke-linecap="round" stroke-linejoin="round" stroke-width="3"/><line x1="61.4" y1="1.5" x2="61.4" y2="24.07" fill="none" stroke="#000" stroke-linecap="round" stroke-linejoin="round" stroke-width="3"/><line x1="1.5" y1="20.77" x2="17.46" y2="36.73" fill="none" stroke="#000" stroke-linecap="round" stroke-linejoin="round" stroke-width="3"/><line x1="121.29" y1="20.77" x2="105.33" y2="36.73" fill="none" stroke="#000" stroke-linecap="round" stroke-linejoin="round" stroke-width="3"/></g></g></svg>