<svg xmlns="http://www.w3.org/2000/svg" viewBox="0 0 450.97 300"><g id="Camada_2" data-name="Camada 2"><g id="Camada_1-2" data-name="Camada 1"><path d="M439.7,69h6.18A5.39,5.39,0,0,0,451,63.34h0a5.39,5.39,0,0,0-5.09-5.65H439.7L270.88,6.83,102.07,57.69H95.89a5.39,5.39,0,0,0-5.09,5.65h0A5.39,5.39,0,0,0,95.89,69H439.7Z" fill="#ff9b3c"/><path d="M20.18,124.14a2.21,2.21,0,0,1-2.2-2.2A15.81,15.81,0,0,0,2.2,106.15a2.2,2.2,0,1,1,0-4.39A15.8,15.8,0,0,0,18,86a2.2,2.2,0,0,1,4.4,0,15.8,15.8,0,0,0,15.79,15.79,2.2,2.2,0,0,1,0,4.39,15.81,15.81,0,0,0-15.79,15.79A2.2,2.2,0,0,1,20.18,124.14ZM11.35,104a20.25,20.25,0,0,1,8.83,8.83A20.31,20.31,0,0,1,29,104a20.36,20.36,0,0,1-8.83-8.83A20.31,20.31,0,0,1,11.35,104Z"/><path d="M386.94,134.5a2.2,2.2,0,0,1-2.2-2.2,12,12,0,0,0-12-12,2.2,2.2,0,0,1,0-4.4,12,12,0,0,0,12-12,2.2,2.2,0,1,1,4.39,0,12,12,0,0,0,12,12,2.2,2.2,0,0,1,0,4.4,12,12,0,0,0-12,12A2.2,2.2,0,0,1,386.94,134.5Zm-6-16.37a16.51,16.51,0,0,1,6,6,16.41,16.41,0,0,1,6-6,16.44,16.44,0,0,1-6-6A16.54,16.54,0,0,1,381,118.13Z"/><path d="M38.17,79.2A2.19,2.19,0,0,1,36,77a8.06,8.06,0,0,0-8-8.05,2.2,2.2,0,1,1,0-4.39,8.06,8.06,0,0,0,8-8,2.2,2.2,0,1,1,4.39,0,8.06,8.06,0,0,0,8,8,2.2,2.2,0,1,1,0,4.39,8.06,8.06,0,0,0-8,8.05A2.19,2.19,0,0,1,38.17,79.2ZM35,66.77A12.69,12.69,0,0,1,38.17,70a12.52,12.52,0,0,1,3.19-3.18,12.72,12.72,0,0,1-3.19-3.19A12.89,12.89,0,0,1,35,66.77Z"/><path d="M331,277H259.74a2.2,2.2,0,0,1-2.2-2.2V203.53a2.2,2.2,0,0,1,2.2-2.2H331a2.2,2.2,0,0,1,2.19,2.2v71.23A2.2,2.2,0,0,1,331,277Zm-69-4.4h66.84V205.73H261.93Z"/><path d="M402.2,277H331a2.2,2.2,0,0,1-2.2-2.2V203.53a2.2,2.2,0,0,1,2.2-2.2H402.2a2.2,2.2,0,0,1,2.19,2.2v71.23A2.2,2.2,0,0,1,402.2,277Zm-69-4.4H400V205.73H333.16Z"/><path d="M212.35,162.7H181.09a2.21,2.21,0,0,1-2.2-2.2V142.6a2.21,2.21,0,0,1,2.2-2.2h31.26a2.2,2.2,0,0,1,2.19,2.2v17.9A2.2,2.2,0,0,1,212.35,162.7Zm-29.06-4.4h26.86V144.8H183.29Z"/><path d="M241.93,223.62H210.67a2.2,2.2,0,0,1-2.2-2.19v-17.9a2.21,2.21,0,0,1,2.2-2.2h31.26a2.21,2.21,0,0,1,2.2,2.2v17.9A2.2,2.2,0,0,1,241.93,223.62Zm-29.06-4.39h26.86v-13.5H212.87Z"/><path d="M390.75,232.57H359.49a2.2,2.2,0,0,1-2.2-2.2V212.48a2.2,2.2,0,0,1,2.2-2.2h31.26a2.2,2.2,0,0,1,2.2,2.2v17.89A2.2,2.2,0,0,1,390.75,232.57Zm-29.06-4.39h26.86v-13.5H361.69Z"/><path d="M259.74,190.89H224.12a2.2,2.2,0,0,1-2.2-2.19V132.3a2.21,2.21,0,0,1,2.2-2.2h35.62a2.2,2.2,0,0,1,2.19,2.2v56.4A2.19,2.19,0,0,1,259.74,190.89Zm-33.42-4.39h31.22v-52H226.32Z"/><path d="M369.94,205.73H298.71a2.21,2.21,0,0,1-2.2-2.2V132.3a2.21,2.21,0,0,1,2.2-2.2h71.23a2.21,2.21,0,0,1,2.2,2.2v71.23A2.21,2.21,0,0,1,369.94,205.73Zm-69-4.4h66.83V134.5H300.91Z"/><path d="M439,66.56H89.57A7.57,7.57,0,0,1,82,59v-.58a7.57,7.57,0,0,1,7.56-7.56H439a7.57,7.57,0,0,1,7.56,7.56V59A7.57,7.57,0,0,1,439,66.56ZM89.57,55.26a3.17,3.17,0,0,0-3.17,3.16V59a3.17,3.17,0,0,0,3.17,3.17H439A3.17,3.17,0,0,0,442.18,59v-.58A3.17,3.17,0,0,0,439,55.26Z"/><path d="M439,66.56H89.57A7.57,7.57,0,0,1,82,59v-.58a7.57,7.57,0,0,1,7.56-7.56H439a7.57,7.57,0,0,1,7.56,7.56V59A7.57,7.57,0,0,1,439,66.56ZM89.57,55.26a3.17,3.17,0,0,0-3.17,3.16V59a3.17,3.17,0,0,0,3.17,3.17H439A3.17,3.17,0,0,0,442.18,59v-.58A3.17,3.17,0,0,0,439,55.26Z"/><path d="M78.19,236.48a56.06,56.06,0,0,0-60.85-20.89A14,14,0,0,0,7.29,229v50.88h5.6A25.15,25.15,0,1,1,63,276.78a24.93,24.93,0,0,1-.2,3.13H83.71a25.16,25.16,0,1,1,49.91,0h7.8V236.48Z" fill="#ff9b3c"/><path d="M59.85,211.21h-29a1.92,1.92,0,0,1-1.93-1.93v-30.9a5.72,5.72,0,1,1,11.43,0v21.4H59.85a5.72,5.72,0,1,1,0,11.43Zm-27.08-3.86H59.85a1.85,1.85,0,1,0,0-3.7H38.41a1.94,1.94,0,0,1-1.94-1.94V178.38a1.85,1.85,0,0,0-3.7,0Z"/><path d="M60.27,221.67a2,2,0,0,1-1.11-.35,53.86,53.86,0,0,0-28.42-9.79,1.93,1.93,0,0,1-1.83-1.93v-.32a1.92,1.92,0,0,1,1.93-1.93H60.27a1.92,1.92,0,0,1,1.93,1.93v10.46a1.92,1.92,0,0,1-1,1.71A1.86,1.86,0,0,1,60.27,221.67ZM48.21,211.21a58.19,58.19,0,0,1,10.13,4.94v-4.94Z"/><path d="M85.73,193.32a1.94,1.94,0,0,1-1.36-3.3l22.68-22.68a1.93,1.93,0,1,1,2.73,2.73L87.1,192.75A1.92,1.92,0,0,1,85.73,193.32Z"/><path d="M114.21,199.11a2,2,0,0,1-1.37-.56L95.71,181.41a1.93,1.93,0,0,1,2.73-2.73l17.13,17.13a1.93,1.93,0,0,1-1.36,3.3Z"/><path d="M121.87,234.13H107.15a1.93,1.93,0,0,1-1.93-1.93V204.54a9.29,9.29,0,1,1,18.58,0V232.2A1.94,1.94,0,0,1,121.87,234.13Zm-12.79-3.87h10.85V204.54a5.43,5.43,0,1,0-10.85,0Z"/><path d="M156.41,261.6H136.58a1.94,1.94,0,0,1-1.93-1.93v-7.29a1.94,1.94,0,0,1,1.93-1.94h19.83a1.94,1.94,0,0,1,1.94,1.94v7.29A1.94,1.94,0,0,1,156.41,261.6Zm-17.89-3.87h16v-3.42h-16Z"/><path d="M131.33,234.13H73a1.94,1.94,0,0,1-1.55-.78,53.63,53.63,0,0,0-43.44-21.88c-1.24,0-2.53,0-3.8.13a1.92,1.92,0,0,1-2.07-1.93V143.2a17.65,17.65,0,0,1,17.63-17.63H99.93a1.9,1.9,0,0,1,1.37.57l31.39,31.39a1.9,1.9,0,0,1,.57,1.37v73.3A1.94,1.94,0,0,1,131.33,234.13ZM74,230.26h55.39V159.7L99.13,129.44H39.81A13.77,13.77,0,0,0,26.05,143.2v64.43l2,0A58.22,58.22,0,0,1,74,230.26Z"/><path d="M167.07,261.6H156.41a1.94,1.94,0,0,1-1.93-1.93V112.23a7.26,7.26,0,1,1,14.52,0V259.67A1.94,1.94,0,0,1,167.07,261.6Zm-8.72-3.87h6.78V112.23a3.39,3.39,0,1,0-6.78,0Z"/><path d="M242.71,267.34h-86.3a1.93,1.93,0,0,1-1.93-1.93v-5.74a1.94,1.94,0,0,1,1.93-1.94h86.3a4.81,4.81,0,1,1,0,9.61Zm-84.36-3.86h84.36a.94.94,0,1,0,0-1.88H158.35Z"/><path d="M156.41,128.31H134.83a1.93,1.93,0,0,1-.87-3.65l21.58-10.93a1.93,1.93,0,0,1,2.81,1.72v10.93A1.93,1.93,0,0,1,156.41,128.31Zm-13.48-3.86h11.55V118.6Z"/><path d="M33,300A27.09,27.09,0,1,1,60.1,272.91,27.12,27.12,0,0,1,33,300Zm0-50.31a23.22,23.22,0,1,0,23.23,23.22A23.24,23.24,0,0,0,33,249.69Z"/><path d="M33,291a18.13,18.13,0,1,1,18.13-18.13A18.15,18.15,0,0,1,33,291Zm0-32.4a14.27,14.27,0,1,0,14.27,14.27A14.28,14.28,0,0,0,33,258.64Z"/><path d="M103.84,291A18.13,18.13,0,1,1,122,272.91,18.16,18.16,0,0,1,103.84,291Zm0-32.4a14.27,14.27,0,1,0,14.26,14.27A14.28,14.28,0,0,0,103.84,258.64Z"/><path d="M103.84,300a27.09,27.09,0,1,1,27.08-27.09A27.13,27.13,0,0,1,103.84,300Zm0-50.31a23.22,23.22,0,1,0,23.22,23.22A23.25,23.25,0,0,0,103.84,249.69Z"/><path d="M136.58,278h-7.79a1.94,1.94,0,0,1-1.45-.66,1.91,1.91,0,0,1-.47-1.52,22.13,22.13,0,0,0,.19-2.89,23.23,23.23,0,0,0-46.45,0,22.13,22.13,0,0,0,.19,2.89A1.94,1.94,0,0,1,78.88,278H58a1.92,1.92,0,0,1-1.45-.66,1.89,1.89,0,0,1-.47-1.51,24.59,24.59,0,0,0,.19-2.9,23.23,23.23,0,0,0-46.45,0A24,24,0,0,0,10,275.8,1.94,1.94,0,0,1,8.06,278H2.46A1.93,1.93,0,0,1,.53,276V225.16A16,16,0,0,1,12,209.87a58,58,0,0,1,62.36,20.81h62.25a1.94,1.94,0,0,1,1.94,1.94V276A1.94,1.94,0,0,1,136.58,278Zm-5.68-3.87h3.75V234.55H73.36a1.92,1.92,0,0,1-1.56-.8A54.17,54.17,0,0,0,13,213.58a12.1,12.1,0,0,0-8.65,11.58v49H6q0-.6,0-1.2a27.09,27.09,0,1,1,54.18,0q0,.6,0,1.2h16.7q0-.6,0-1.2a27.09,27.09,0,1,1,54.18,0C130.92,273.31,130.91,273.71,130.9,274.11Z"/><path d="M270.34,186.5H166.41v4.39H268.14v81.67H138.93a2.2,2.2,0,0,0,0,4.4H270.34a2.2,2.2,0,0,0,2.2-2.2V188.7A2.19,2.19,0,0,0,270.34,186.5Z"/><path d="M157.22,186.5h-2.13v-52h2.16v-4.4h-4.36a2.21,2.21,0,0,0-2.2,2.2v56.4a2.2,2.2,0,0,0,2.2,2.19h4.33Z"/><path d="M224.12,130.1H166.2v4.4h55.72v52h-54.1v4.39h56.3a2.2,2.2,0,0,0,2.2-2.19V132.3A2.21,2.21,0,0,0,224.12,130.1Z"/><rect x="133.26" y="186.5" width="23.96" height="4.4"/><path d="M439.29,50.86h-5.86L264.92.09a2.25,2.25,0,0,0-1.26,0L95.15,50.86H89.29c-4,0-7.28,3.52-7.28,7.85s3.27,7.85,7.28,7.85h4v59h4.39V64.36a2.19,2.19,0,0,0-2.19-2.19H89.29a3.51,3.51,0,0,1,0-6.91h6.19a2.28,2.28,0,0,0,.63-.09L264.29,4.49,432.47,55.17a2.3,2.3,0,0,0,.64.09h6.18a3.51,3.51,0,0,1,0,6.91h-6.18a2.19,2.19,0,0,0-2.2,2.19v208.2h-293a2.2,2.2,0,0,0,0,4.4H433.11a2.2,2.2,0,0,0,2.19-2.2V66.56h4c4,0,7.28-3.52,7.28-7.85S443.3,50.86,439.29,50.86Z"/></g></g></svg>