<svg xmlns="http://www.w3.org/2000/svg" viewBox="0 0 557.38 300"><g id="Camada_2" data-name="Camada 2"><g id="Camada_1-2" data-name="Camada 1"><circle cx="176.24" cy="85.58" r="79.22" fill="#ff9b3c"/><path d="M477.48,300A43.57,43.57,0,1,1,521,256.43,43.62,43.62,0,0,1,477.48,300Zm0-82A38.48,38.48,0,1,0,516,256.43,38.51,38.51,0,0,0,477.48,218Z"/><path d="M477.48,281.92A25.49,25.49,0,1,1,503,256.43,25.52,25.52,0,0,1,477.48,281.92Zm0-45.87a20.39,20.39,0,1,0,20.39,20.38A20.41,20.41,0,0,0,477.48,236.05Z"/><path d="M176.24,281.92a25.49,25.49,0,1,1,25.48-25.49A25.52,25.52,0,0,1,176.24,281.92Zm0-45.87a20.39,20.39,0,1,0,20.39,20.38A20.41,20.41,0,0,0,176.24,236.05Z"/><path d="M520,259H518.5a2.55,2.55,0,0,1-2.55-2.55,38.47,38.47,0,0,0-76.94,0,2.55,2.55,0,0,1-2.55,2.55H410a2.55,2.55,0,0,1-2.55-2.55V67.57A2.55,2.55,0,0,1,410,65h53.41a94.13,94.13,0,0,1,94,94v62.5A37.47,37.47,0,0,1,520,259Zm-107.46-5.09H434a43.56,43.56,0,0,1,87,0,32.38,32.38,0,0,0,31.32-32.32v-62.5a89,89,0,0,0-88.93-88.93H412.49Z"/><path d="M554.83,218.78a18.77,18.77,0,0,1,0-37.53,2.55,2.55,0,0,1,2.55,2.55v32.43A2.55,2.55,0,0,1,554.83,218.78Zm-2.54-32.2a13.67,13.67,0,0,0,0,26.87Z"/><path d="M176.24,300a43.57,43.57,0,1,1,43.57-43.57A43.61,43.61,0,0,1,176.24,300Zm0-82a38.48,38.48,0,1,0,38.47,38.47A38.52,38.52,0,0,0,176.24,218Z"/><path d="M164.87,163.53a81.77,81.77,0,1,1,81.76-81.77A81.86,81.86,0,0,1,164.87,163.53Zm0-158.44a76.67,76.67,0,1,0,76.67,76.67A76.76,76.76,0,0,0,164.87,5.09Z"/><path d="M410,259H217.26a2.55,2.55,0,0,1-2.55-2.55,38.47,38.47,0,0,0-76.94,0,2.55,2.55,0,0,1-2.55,2.55H123.43a27.94,27.94,0,0,1-27.91-27.91V153.5a2.55,2.55,0,1,1,5.09,0v77.57a22.85,22.85,0,0,0,22.82,22.82h9.32a43.56,43.56,0,0,1,87,0H407.4V49.57a22.85,22.85,0,0,0-22.82-22.82H245.66a2.55,2.55,0,1,1,0-5.09H384.58a27.94,27.94,0,0,1,27.91,27.91V256.43A2.55,2.55,0,0,1,410,259Z"/><path d="M554.83,164.55h-76a31.38,31.38,0,0,1-31.34-31.35V85.58A2.55,2.55,0,0,1,450.06,83h67.8a2.53,2.53,0,0,1,1.52.51,94.5,94.5,0,0,1,38,75.51V162A2.55,2.55,0,0,1,554.83,164.55ZM452.6,88.13V133.2a26.29,26.29,0,0,0,26.25,26.26h73.44v-.41A88.18,88.18,0,0,0,517,88.13Z"/><path d="M154.9,105.86a2.54,2.54,0,0,1-1.81-.75L131.79,83.8a2.55,2.55,0,1,1,3.6-3.6L154.9,99.71l41.29-41.3a2.55,2.55,0,1,1,3.6,3.61L156.7,105.11A2.54,2.54,0,0,1,154.9,105.86Z"/><path d="M74.33,35.73H27.61a2.55,2.55,0,0,1,0-5.1H74.33a2.55,2.55,0,0,1,0,5.1Z"/><path d="M49.27,70.12H2.55a2.55,2.55,0,0,1,0-5.1H49.27a2.55,2.55,0,1,1,0,5.1Z"/><path d="M70.15,104.51H23.43a2.55,2.55,0,1,1,0-5.1H70.15a2.55,2.55,0,1,1,0,5.1Z"/></g></g></svg>